Coordinates
version=1
nRows=7
nColumns=40
inDegrees=yes

Units are S.I. units (second, meters, Newtons, ...)
Angles are in degrees.

endheader
time	pelvis_tilt	pelvis_list	pelvis_rotation	pelvis_tx	pelvis_ty	pelvis_tz	hip_flexion_r	hip_adduction_r	hip_rotation_r	knee_angle_r	knee_angle_r_beta	ankle_angle_r	subtalar_angle_r	mtp_angle_r	hip_flexion_l	hip_adduction_l	hip_rotation_l	knee_angle_l	knee_angle_l_beta	ankle_angle_l	subtalar_angle_l	mtp_angle_l	lumbar_extension	lumbar_bending	lumbar_rotation	arm_flex_r	arm_add_r	arm_rot_r	elbow_flex_r	pro_sup_r	wrist_flex_r	wrist_dev_r	arm_flex_l	arm_add_l	arm_rot_l	elbow_flex_l	pro_sup_l	wrist_flex_l	wrist_dev_l
     24.87614286	     -4.44041646	     -5.41484978	     -1.99940598	      1.07002232	      0.93372089	      0.41690164	     32.07741496	     -5.86356491	     -5.83053661	     52.14340000	     52.14340000	     -1.99634630	     -9.99083913	     -2.36970918	     13.28207822	     -7.01680483	     -9.62603450	     21.55543083	     21.55543083	     14.73489442	     -8.38270496	      0.19385428	    -11.67838583	      3.84392494	     -1.02370291	     -1.73351423	    -17.27921194	     -5.81216009	     25.86000306	     47.38207395	      0.00000000	      0.00000000	     10.08705200	    -19.47731714	     -6.92202291	     54.56071865	     46.52621249	      0.00000000	      0.00000000
     24.88978571	     -4.49471339	     -5.43494270	     -2.46680623	      1.06943362	      0.93426250	      0.41788213	     31.89824723	     -5.47385464	     -6.05170251	     48.25708067	     48.25708067	     -1.66320750	     -8.90155087	     -2.27863733	     12.49808535	     -7.06586444	    -10.07227746	     20.80991149	     20.80991149	     14.77036613	     -8.31887247	      0.06128688	    -11.68196492	      3.77509214	     -1.08638513	     -2.18071262	    -17.28474132	     -6.10376676	     26.03823043	     47.38137796	      0.00000000	      0.00000000	     10.74320202	    -19.78939596	     -6.94419501	     55.00586564	     46.54651260	      0.00000000	      0.00000000
     24.90342857	     -4.58833096	     -5.40716575	     -2.93365202	      1.06896114	      0.93446466	      0.41895910	     31.54420477	     -5.11119573	     -6.31811275	     43.93304912	     43.93304912	     -1.83373598	     -7.77315580	     -3.88189154	     11.70554908	     -7.03151638	    -10.44825311	     19.91028301	     19.91028301	     14.18208294	     -8.60975107	     -1.50795611	    -11.66563809	      3.67348179	     -0.70895557	     -3.44541971	    -17.08835337	     -8.24047607	     27.86371288	     47.36872786	      0.00000000	      0.00000000	     11.62270962	    -20.00136672	     -6.45988330	     55.74276648	     46.57191716	      0.00000000	      0.00000000
     24.91707143	     -4.78145367	     -5.41374941	     -3.35279111	      1.06847750	      0.93444206	      0.42016541	     31.17836696	     -4.65178060	     -6.59798418	     39.42295274	     39.42295274	     -1.47968665	     -6.34003961	     -3.46480601	     11.18644281	     -7.07665006	    -10.77743721	     19.36631484	     19.36631484	     14.30655874	     -8.61404108	     -1.51026142	    -11.45932444	      3.63030282	     -0.85676095	     -3.61831130	    -16.96930841	     -8.36914147	     27.85089705	     47.36787785	      0.00000000	      0.00000000	     12.22095947	    -20.25765994	     -6.49178308	     56.00387106	     46.58812262	      0.00000000	      0.00000000
     24.93071429	     -4.87744285	     -5.35052432	     -3.75431943	      1.06817684	      0.93438283	      0.42142421	     30.53187560	     -4.27396732	     -6.99131512	     34.67043412	     34.67043412	     -1.14584461	     -4.42179951	     -3.07160022	     10.54291694	     -7.03874827	    -11.14118092	     18.80387829	     18.80387829	     14.42269547	     -8.56931919	     -1.60829626	    -11.36125968	      3.51071397	     -0.88827978	     -3.80182672	    -16.80843108	     -8.55285323	     27.92677781	     47.36561079	      0.00000000	      0.00000000	     12.89110394	    -20.44559756	     -6.54006747	     56.40026917	     46.60857191	      0.00000000	      0.00000000
     24.94435714	     -5.01976443	     -5.25615283	     -4.12920799	      1.06799805	      0.93406704	      0.42278702	     29.79355932	     -3.89171553	     -7.46214651	     29.78193430	     29.78193430	     -0.88502405	     -2.26437763	     -2.53316607	      9.97661037	     -6.97755205	    -11.50013257	     18.28768297	     18.28768297	     14.53091657	     -8.51789889	     -1.77436437	    -11.20071634	      3.38043178	     -0.87340984	     -3.96870514	    -16.56155046	     -8.74564434	     28.07191207	     47.36155051	      0.00000000	      0.00000000	     13.53838178	    -20.57671218	     -6.59539054	     56.84266367	     46.62949931	      0.00000000	      0.00000000
     24.95800000	     -4.98776399	     -5.02519159	     -4.45893043	      1.06813609	      0.93375137	      0.42410378	     28.77274326	     -3.72906764	     -8.28885774	     24.94762920	     24.94762920	     -0.59854607	      0.72668289	     -1.86864261	      9.17452436	     -6.74953519	    -11.94533087	     17.69760122	     17.69760122	     14.55428144	     -8.36376431	     -2.27153698	    -11.21813541	      3.10670511	     -0.71749231	     -4.24984166	    -16.28251086	     -9.33617636	     28.49419107	     47.35843657	      0.00000000	      0.00000000	     14.29484129	    -20.59117788	     -6.68803328	     57.44095481	     46.66338689	      0.00000000	      0.00000000
